

					<svg width="55px" id="svg" version="1.1" xmlns="http://www.w3.org/2000/svg" xmlns:xlink="http://www.w3.org/1999/xlink" viewBox="0, 0, 400,375.66666666666663"
						><g id="svgg"
							><path
								id="path0"
								d="M227.312 0.917 C 222.009 3.606,222.062 9.640,227.431 14.523 C 229.440 16.349,229.683 16.464,235.833 18.493 C 270.673 29.989,290.485 51.981,300.705 90.500 L 301.766 94.500 302.190 195.000 C 302.423 250.275,302.625 308.759,302.640 324.965 L 302.667 354.430 340.250 354.213 C 360.921 354.094,382.821 353.901,388.917 353.784 L 400.000 353.572 400.000 332.629 L 400.000 311.686 374.917 311.854 C 361.121 311.946,348.307 312.105,346.441 312.208 L 343.048 312.394 342.209 313.614 C 341.747 314.285,340.911 315.493,340.351 316.300 C 338.566 318.873,339.286 322.664,342.048 325.230 L 342.834 325.960 364.334 325.688 C 388.155 325.386,386.266 325.233,387.719 327.585 C 388.710 329.187,388.602 330.187,387.292 331.565 L 386.167 332.748 350.726 332.572 C 331.234 332.476,315.237 332.345,315.177 332.282 C 315.118 332.218,314.742 277.867,314.342 211.500 L 313.616 90.833 311.007 83.000 C 296.936 40.744,274.051 15.256,238.004 1.692 C 232.448 -0.399,230.224 -0.560,227.312 0.917 M164.686 2.378 C 159.686 2.949,140.163 13.866,128.500 22.613 C 109.147 37.125,100.148 50.498,92.685 75.833 C 91.550 79.683,89.882 85.272,88.978 88.252 L 87.333 93.671 87.333 224.335 L 87.333 355.000 94.165 355.000 L 100.997 355.000 100.813 335.917 C 100.711 325.421,100.337 268.083,99.981 208.500 L 99.333 100.167 100.492 95.211 C 106.641 68.931,116.921 49.623,131.393 37.171 C 139.912 29.841,148.673 25.002,165.957 18.084 C 172.094 15.627,173.764 14.539,174.956 12.222 C 178.262 5.798,173.627 1.355,164.686 2.378 M195.500 44.476 C 192.811 45.009,191.136 45.582,188.774 46.779 L 187.095 47.630 185.631 46.902 C 179.560 43.881,172.999 49.654,175.191 56.087 L 175.716 57.627 174.105 59.730 C 173.219 60.887,171.842 62.891,171.044 64.184 L 169.595 66.535 166.335 65.802 C 146.168 61.269,129.922 68.006,126.039 82.513 C 125.718 83.715,125.527 83.900,124.256 84.246 C 118.004 85.948,117.052 94.851,122.801 97.861 C 124.545 98.775,124.662 98.915,124.856 100.331 C 125.056 101.795,126.161 107.499,126.502 108.833 C 126.639 109.365,126.284 109.732,124.753 110.644 C 107.329 121.028,100.220 136.397,106.471 150.167 L 107.530 152.500 106.703 153.985 C 103.295 160.097,109.750 167.203,116.244 164.489 C 117.442 163.989,117.495 163.999,118.817 164.993 C 120.371 166.163,125.935 169.918,126.335 170.067 C 126.482 170.122,126.245 171.892,125.807 174.000 C 121.676 193.903,127.485 208.599,141.371 213.374 C 143.536 214.119,143.582 214.160,143.970 215.677 C 145.726 222.528,155.818 223.113,158.106 216.496 L 158.566 215.167 160.796 214.917 C 162.022 214.779,164.400 214.367,166.080 214.000 C 167.761 213.633,169.239 213.333,169.366 213.333 C 169.493 213.333,170.093 214.121,170.700 215.083 C 181.933 232.913,196.100 239.569,210.013 233.554 L 212.648 232.415 214.214 233.207 C 220.302 236.289,226.918 230.669,224.752 224.256 L 224.125 222.396 225.103 221.115 C 225.642 220.410,227.050 218.371,228.233 216.583 C 229.415 214.796,230.484 213.336,230.608 213.338 C 230.732 213.341,231.733 213.555,232.833 213.814 C 252.482 218.435,267.944 212.862,273.214 199.260 C 274.343 196.346,274.442 196.206,275.532 195.980 C 282.606 194.508,283.357 183.930,276.546 181.682 C 275.473 181.328,275.349 181.154,275.155 179.730 C 275.037 178.870,274.587 176.372,274.154 174.178 C 273.721 171.984,273.397 170.182,273.434 170.174 C 273.470 170.165,275.225 169.006,277.333 167.598 C 293.616 156.723,299.360 143.165,293.482 129.481 C 292.336 126.813,292.331 126.775,292.896 125.643 C 296.006 119.423,289.787 112.518,283.458 115.163 C 282.291 115.650,282.244 115.639,280.885 114.535 C 280.123 113.916,278.150 112.543,276.500 111.483 C 274.850 110.423,273.464 109.532,273.420 109.504 C 273.376 109.475,273.729 107.662,274.204 105.476 C 277.701 89.386,273.753 75.390,263.907 68.976 C 261.957 67.705,257.440 65.667,256.576 65.667 C 256.317 65.667,255.934 65.104,255.725 64.417 C 253.961 58.630,247.015 56.850,243.038 61.165 C 242.274 61.993,241.563 63.101,241.458 63.627 C 241.281 64.510,241.123 64.599,239.383 64.795 C 238.348 64.912,235.892 65.335,233.926 65.736 C 231.961 66.136,230.309 66.397,230.256 66.315 C 218.760 48.704,208.072 41.988,195.500 44.476 M203.103 46.034 C 211.456 47.312,220.422 54.316,226.948 64.661 C 228.553 67.206,228.765 66.916,224.167 68.479 C 217.554 70.727,210.403 74.026,203.422 78.048 L 200.011 80.014 194.652 77.033 C 188.521 73.622,181.230 70.328,175.667 68.456 C 173.558 67.747,171.775 67.133,171.704 67.093 C 171.506 66.980,173.582 63.650,175.358 61.231 L 176.943 59.074 178.607 59.897 C 185.087 63.104,192.222 56.486,189.031 50.228 L 188.396 48.982 189.749 48.291 C 194.025 46.110,198.575 45.340,203.103 46.034 M161.833 66.872 C 165.513 67.471,168.374 68.110,168.369 68.333 C 168.367 68.425,167.515 70.300,166.475 72.500 C 163.307 79.201,160.559 86.765,158.724 93.830 L 157.772 97.494 154.969 98.255 C 146.271 100.618,138.062 103.624,131.993 106.670 C 127.983 108.682,128.300 108.875,127.354 103.852 C 126.475 99.182,126.474 98.667,127.344 98.667 C 134.754 98.667,135.889 85.753,128.619 84.156 C 127.376 83.883,127.448 83.384,129.297 79.500 C 134.340 68.905,146.150 64.322,161.833 66.872 M241.286 67.750 C 243.155 75.003,253.517 75.734,255.601 68.759 L 256.021 67.352 258.174 68.134 C 271.119 72.832,276.666 87.974,272.108 106.167 C 271.833 107.267,271.561 108.213,271.505 108.271 C 271.449 108.328,269.925 107.636,268.118 106.734 C 261.801 103.580,253.075 100.402,244.550 98.152 C 243.295 97.821,242.219 97.389,242.159 97.192 C 242.099 96.995,241.354 94.358,240.504 91.333 C 238.645 84.722,235.952 77.569,233.322 72.253 C 232.257 70.101,231.487 68.278,231.610 68.203 C 231.888 68.032,238.140 66.729,239.500 66.559 C 240.050 66.490,240.595 66.411,240.710 66.383 C 240.826 66.356,241.085 66.971,241.286 67.750 M231.691 73.238 C 235.000 80.110,240.593 96.184,239.912 96.865 C 239.835 96.943,238.352 96.714,236.616 96.357 C 232.705 95.552,222.405 94.002,220.927 93.995 C 219.526 93.989,219.305 93.854,213.715 89.600 C 211.137 87.639,207.425 84.958,205.466 83.644 L 201.904 81.254 203.702 80.134 C 208.870 76.915,217.862 72.726,225.167 70.136 C 229.858 68.473,229.260 68.188,231.691 73.238 M175.922 70.534 C 182.451 72.893,193.349 78.124,197.599 80.939 C 197.903 81.140,196.967 81.943,194.432 83.657 C 192.453 84.994,188.829 87.606,186.379 89.461 C 183.929 91.316,181.647 93.036,181.307 93.283 C 180.968 93.530,178.473 94.015,175.762 94.361 C 171.432 94.914,162.884 96.351,160.750 96.885 C 159.720 97.142,159.752 96.897,161.521 90.966 C 164.548 80.818,169.638 69.000,170.981 69.000 C 171.364 69.000,173.587 69.690,175.922 70.534 M204.167 85.114 C 207.203 87.148,212.796 91.191,214.343 92.470 L 215.186 93.167 199.943 93.167 C 191.559 93.167,184.805 93.077,184.933 92.968 C 189.556 89.029,199.731 82.354,200.500 82.756 C 200.867 82.947,202.517 84.009,204.167 85.114 M210.500 94.999 C 218.433 95.456,217.854 95.266,221.932 98.757 C 232.182 107.533,244.007 120.446,244.398 123.291 C 244.918 127.074,245.107 146.021,244.686 152.162 L 244.277 158.118 241.242 161.643 C 237.321 166.196,226.142 177.377,221.731 181.157 L 218.295 184.102 215.564 184.362 C 206.825 185.194,184.358 184.960,181.863 184.011 C 179.777 183.218,163.719 167.652,158.103 160.980 L 155.706 158.132 155.355 153.483 C 154.902 147.499,154.902 132.169,155.354 126.187 L 155.706 121.541 158.580 118.187 C 166.229 109.260,180.712 95.724,182.913 95.446 C 188.440 94.747,202.240 94.524,210.500 94.999 M177.333 96.702 C 172.836 100.373,160.185 113.034,156.720 117.333 L 156.048 118.167 156.227 116.667 C 156.550 113.964,158.271 103.886,158.822 101.476 L 159.360 99.119 163.930 98.199 C 168.723 97.233,175.914 96.076,177.333 96.042 L 178.167 96.022 177.333 96.702 M228.167 96.831 C 232.841 97.557,240.328 98.967,240.594 99.171 C 241.017 99.495,243.812 116.196,243.609 117.184 C 243.537 117.532,242.624 116.709,240.936 114.773 C 238.128 111.555,227.447 100.911,224.000 97.898 C 222.808 96.856,222.058 96.003,222.333 96.002 C 222.608 96.002,225.233 96.375,228.167 96.831 M156.483 103.417 C 155.652 107.512,154.511 114.853,154.148 118.436 C 153.945 120.443,153.755 120.907,152.516 122.436 C 149.912 125.650,146.117 130.814,143.834 134.250 C 142.586 136.129,141.460 137.667,141.333 137.667 C 141.121 137.667,137.003 130.374,135.404 127.167 C 133.477 123.302,129.000 111.743,129.000 110.632 C 129.000 110.180,136.326 106.631,141.167 104.737 C 145.100 103.199,155.350 99.944,157.039 99.697 C 157.152 99.680,156.902 101.354,156.483 103.417 M247.537 100.983 C 256.010 103.393,271.000 109.452,271.000 110.468 C 271.000 112.880,264.451 127.870,260.108 135.401 L 258.585 138.040 257.009 135.580 C 255.012 132.462,250.470 126.201,248.006 123.167 L 246.111 120.833 245.389 115.255 C 244.760 110.391,243.305 101.974,242.794 100.250 C 242.577 99.515,242.136 99.447,247.537 100.983 M195.667 102.376 C 166.762 105.721,153.927 141.081,173.977 162.132 C 191.092 180.102,220.940 175.650,231.857 153.500 C 244.394 128.063,223.897 99.109,195.667 102.376 M131.633 123.483 C 133.494 127.810,135.105 130.994,137.912 135.893 L 140.202 139.891 139.434 141.105 C 135.796 146.853,131.249 156.489,128.670 163.913 L 127.138 168.327 124.152 166.379 C 119.579 163.396,118.563 162.501,119.173 161.995 C 119.989 161.318,120.753 158.165,120.487 156.571 C 119.635 151.455,114.429 148.574,110.016 150.775 C 109.006 151.279,108.985 151.272,108.455 150.246 C 101.949 137.665,108.297 123.279,125.022 112.704 L 127.145 111.362 128.676 115.764 C 129.517 118.186,130.848 121.659,131.633 123.483 M276.917 114.089 C 281.059 116.889,280.845 116.550,279.836 118.718 C 276.866 125.098,282.926 131.795,289.169 129.033 C 290.050 128.644,290.803 128.365,290.845 128.413 C 291.406 129.067,292.854 132.626,293.355 134.585 C 296.145 145.493,290.187 156.556,276.518 165.850 L 272.869 168.331 271.303 163.916 C 268.736 156.679,265.122 148.913,261.472 142.790 C 259.573 139.604,259.570 140.065,261.503 136.833 C 265.222 130.613,269.984 120.173,272.023 113.767 C 272.486 112.314,272.927 111.449,273.143 111.573 C 273.340 111.686,275.038 112.818,276.917 114.089 M153.307 128.500 C 153.166 130.700,153.051 135.800,153.051 139.833 C 153.051 143.867,153.166 148.967,153.307 151.167 C 153.447 153.367,153.529 155.211,153.488 155.265 C 153.274 155.550,143.271 141.427,142.779 140.146 C 142.516 139.461,153.126 123.893,153.500 124.414 C 153.535 124.461,153.447 126.300,153.307 128.500 M252.145 132.000 C 257.275 139.200,257.500 139.624,256.818 140.812 C 255.290 143.475,246.680 155.458,246.456 155.234 C 246.410 155.188,246.529 152.603,246.722 149.491 C 247.061 144.000,246.900 129.208,246.464 125.833 L 246.249 124.167 247.831 126.167 C 248.702 127.267,250.643 129.892,252.145 132.000 M260.268 144.583 C 264.754 152.543,271.000 166.770,271.000 169.029 C 271.000 170.247,255.959 176.368,246.527 178.988 C 242.201 180.190,242.602 180.440,243.344 177.000 C 243.989 174.016,245.468 164.597,245.840 161.112 C 246.046 159.179,246.217 158.855,248.744 155.612 C 251.926 151.529,255.975 145.859,257.447 143.426 C 258.026 142.469,258.528 141.681,258.562 141.676 C 258.596 141.671,259.364 142.979,260.268 144.583 M143.692 145.238 C 145.656 148.208,150.325 154.609,152.885 157.840 C 153.824 159.025,153.977 159.540,154.324 162.667 C 154.703 166.095,156.376 176.280,156.964 178.747 C 157.313 180.210,157.797 180.237,151.595 178.454 C 142.694 175.895,129.000 170.169,129.000 169.006 C 129.000 167.920,133.505 156.309,135.404 152.500 C 136.977 149.346,141.120 142.000,141.325 142.000 C 141.449 142.000,142.514 143.457,143.692 145.238 M163.035 169.332 C 166.383 172.940,169.646 176.090,176.402 182.239 C 177.265 183.024,177.790 183.664,177.569 183.661 C 174.051 183.607,159.392 180.723,159.198 180.047 C 158.824 178.738,157.319 170.521,156.840 167.167 C 156.552 165.150,156.246 163.072,156.160 162.549 C 156.015 161.670,156.123 161.733,157.585 163.381 C 158.455 164.361,160.907 167.039,163.035 169.332 M243.450 164.917 C 242.854 169.252,241.807 175.296,241.146 178.223 L 240.609 180.600 235.221 181.634 C 229.166 182.797,222.805 183.768,222.317 183.606 C 222.139 183.546,223.211 182.455,224.699 181.180 C 228.283 178.109,237.899 168.490,241.180 164.693 C 242.619 163.029,243.819 161.667,243.847 161.667 C 243.874 161.667,243.696 163.129,243.450 164.917 M133.371 173.638 C 139.025 176.356,144.816 178.496,152.167 180.584 C 155.100 181.418,157.531 182.121,157.569 182.147 C 157.607 182.173,158.324 184.581,159.161 187.498 C 161.568 195.885,164.065 202.478,167.211 208.750 C 168.015 210.354,168.583 211.667,168.472 211.667 C 168.362 211.667,166.823 211.953,165.052 212.303 C 163.282 212.652,161.129 213.035,160.268 213.154 L 158.702 213.369 158.355 212.101 C 156.449 205.136,146.089 204.337,144.135 211.003 C 143.706 212.466,143.443 212.435,139.333 210.442 C 127.987 204.940,123.329 189.357,128.015 172.583 C 128.441 171.061,127.712 170.918,133.371 173.638 M271.827 172.083 C 272.636 175.585,272.994 177.458,273.185 179.201 L 273.408 181.235 271.954 181.605 C 265.241 183.314,264.715 194.380,271.279 195.821 C 272.556 196.102,272.561 196.257,271.386 199.011 C 266.109 211.376,253.152 216.079,234.791 212.293 L 231.415 211.597 233.503 207.215 C 236.238 201.476,238.690 194.868,240.553 188.214 C 241.382 185.255,242.107 182.672,242.163 182.476 C 242.220 182.279,243.594 181.771,245.217 181.347 C 253.130 179.278,262.317 175.898,268.167 172.903 C 271.686 171.101,271.605 171.119,271.827 172.083 M166.167 183.829 C 168.733 184.303,173.068 184.977,175.798 185.328 C 180.479 185.929,180.841 186.029,182.130 187.066 C 185.248 189.576,190.577 193.480,193.925 195.709 C 195.891 197.017,197.626 198.201,197.779 198.339 C 198.310 198.819,186.820 204.862,180.374 207.493 C 177.010 208.866,170.617 211.073,170.476 210.910 C 168.783 208.948,163.465 195.616,161.143 187.514 C 159.775 182.743,159.758 182.534,160.750 182.781 C 161.162 182.884,163.600 183.356,166.167 183.829 M240.000 182.954 C 240.000 186.206,231.056 209.768,229.443 210.765 C 227.749 211.813,200.842 199.308,202.413 198.204 C 202.703 198.000,204.941 196.448,207.387 194.754 C 209.832 193.060,213.476 190.399,215.483 188.840 C 217.667 187.143,219.541 185.943,220.150 185.850 C 220.709 185.764,223.492 185.380,226.333 184.996 C 229.175 184.612,233.225 183.948,235.333 183.520 C 239.880 182.599,240.000 182.584,240.000 182.954 M199.664 186.697 C 204.521 186.699,210.071 186.600,211.998 186.477 C 214.271 186.332,215.383 186.368,215.167 186.579 C 214.315 187.408,207.758 192.181,204.065 194.659 L 199.964 197.411 196.565 195.154 C 192.649 192.552,184.667 186.697,184.667 186.426 C 184.667 186.325,186.054 186.344,187.750 186.468 C 189.446 186.592,194.807 186.696,199.664 186.697 M200.517 199.969 C 202.289 201.663,216.386 208.502,222.907 210.831 C 225.250 211.668,227.445 212.467,227.786 212.606 C 228.337 212.831,228.147 213.238,226.041 216.346 C 222.535 221.520,222.954 221.147,221.575 220.333 C 215.498 216.748,207.723 223.531,210.812 229.723 C 211.461 231.025,211.436 231.051,208.333 232.289 C 196.302 237.090,183.938 231.368,173.822 216.317 C 171.353 212.643,171.350 212.594,173.575 211.999 C 178.527 210.675,190.218 205.375,197.000 201.379 C 200.160 199.518,200.078 199.550,200.517 199.969 M140.333 307.108 L 140.333 332.215 138.775 332.993 C 137.360 333.700,137.138 333.727,136.359 333.290 L 135.500 332.808 135.411 324.237 L 135.322 315.667 120.440 315.667 L 105.558 315.667 105.779 329.917 C 105.900 337.754,105.999 347.054,106.000 350.583 L 106.000 357.000 113.500 357.000 L 121.000 357.000 121.000 359.833 L 121.000 362.667 115.213 362.667 C 112.030 362.667,108.730 362.762,107.880 362.879 L 106.333 363.091 106.333 369.212 L 106.333 375.333 120.333 375.333 L 134.333 375.333 134.333 365.000 L 134.333 354.667 164.500 354.667 L 194.667 354.667 194.667 335.285 L 194.667 315.904 175.583 316.145 C 165.087 316.278,156.369 316.513,156.208 316.669 C 154.610 318.212,156.837 325.118,159.616 327.238 L 161.052 328.333 168.276 328.336 C 172.249 328.337,176.508 328.433,177.741 328.550 L 179.981 328.761 180.533 330.207 C 181.047 331.552,181.047 331.712,180.535 332.493 L 179.985 333.333 166.546 333.333 L 153.108 333.333 152.887 323.279 C 152.766 317.749,152.667 306.199,152.667 297.612 L 152.667 282.000 146.500 282.000 L 140.333 282.000 140.333 307.108 M204.833 295.960 C 197.484 299.331,199.668 310.333,207.686 310.333 C 210.154 310.333,211.574 309.719,213.158 307.966 C 214.837 306.108,217.656 306.027,219.068 307.796 C 222.437 312.019,229.595 310.867,231.534 305.790 C 234.484 298.066,225.216 291.813,219.497 297.669 C 217.532 299.683,214.999 299.647,212.925 297.577 C 210.708 295.363,207.522 294.726,204.833 295.960 M40.870 296.745 C 37.706 297.582,35.398 301.262,35.769 304.879 C 36.727 314.237,50.363 313.456,50.326 304.045 C 50.306 298.862,45.855 295.426,40.870 296.745 M5.167 314.204 C 3.219 314.465,1.490 315.072,0.750 315.756 L 0.000 316.450 0.000 336.225 L 0.000 356.000 24.083 356.000 C 37.329 356.001,55.704 356.100,64.917 356.221 L 81.667 356.442 81.667 336.613 L 81.667 316.783 80.917 316.108 C 78.606 314.027,72.682 313.908,70.321 315.895 L 69.333 316.726 69.333 325.530 L 69.333 334.333 42.500 334.333 L 15.667 334.333 15.667 325.524 L 15.667 316.715 14.781 316.018 C 13.200 314.775,8.099 313.812,5.167 314.204 M269.332 320.417 C 269.331 323.396,269.233 327.296,269.115 329.083 L 268.899 332.333 266.783 332.333 L 264.667 332.333 264.667 324.167 L 264.667 316.000 250.000 316.000 L 235.333 316.000 235.333 323.679 L 235.333 331.357 232.083 331.262 L 228.833 331.167 228.624 325.333 C 228.509 322.125,228.396 318.878,228.374 318.118 L 228.333 316.737 223.250 316.543 C 220.454 316.437,214.604 316.284,210.250 316.204 L 202.333 316.058 202.333 335.665 L 202.333 355.271 205.417 355.456 C 207.112 355.558,221.611 355.796,237.636 355.984 C 253.660 356.173,266.816 356.372,266.871 356.427 C 266.926 356.482,267.076 360.308,267.204 364.930 L 267.438 373.333 282.052 373.333 L 296.667 373.333 296.667 344.385 L 296.667 315.436 292.417 315.219 C 290.079 315.100,283.929 315.002,278.750 315.001 L 269.333 315.000 269.332 320.417 M216.431 326.339 C 219.170 328.493,217.580 336.580,214.767 334.806 C 211.843 332.962,212.296 325.667,215.333 325.667 C 215.467 325.667,215.961 325.969,216.431 326.339 M252.445 326.746 C 253.916 328.724,253.392 333.410,251.592 334.373 C 248.510 336.023,246.728 329.306,249.395 326.092 C 250.005 325.358,251.681 325.717,252.445 326.746 M121.917 328.321 C 122.831 330.134,122.864 332.033,122.014 333.905 C 120.521 337.195,117.333 335.368,117.333 331.221 C 117.333 326.890,120.261 325.037,121.917 328.321 M286.026 327.641 L 287.000 328.615 287.000 344.341 L 287.000 360.067 285.884 361.182 C 284.544 362.523,283.787 362.438,282.334 360.783 L 281.333 359.643 281.333 344.034 L 281.333 328.424 282.212 327.545 C 283.406 326.352,284.771 326.386,286.026 327.641 M380.872 358.491 C 376.774 359.951,374.868 365.168,376.949 369.227 C 379.585 374.367,386.769 374.559,389.683 369.568 C 393.245 363.467,387.428 356.154,380.872 358.491 "
								stroke="none"
								fill="#ffffff"
								fill-rule="evenodd"
							/></g
						></svg>


